G04 ================== begin FILE IDENTIFICATION RECORD ==================*
G04 Layout Name:  V_PROIECT_STABILIZATOR_VARIANTA_FINALA_cu_fisiere.brd*
G04 Film Name:    SMTOP*
G04 File Format:  Gerber RS274X*
G04 File Origin:  Cadence Allegro 17.2-S025*
G04 Origin Date:  Sun Dec 14 00:05:42 2025*
G04 *
G04 Layer:  VIA CLASS/SOLDERMASK_TOP*
G04 Layer:  PIN/SOLDERMASK_TOP*
G04 Layer:  PACKAGE GEOMETRY/SOLDERMASK_TOP*
G04 Layer:  DRC ERROR CLASS/SOLDERMASK_TOP*
G04 Layer:  BOARD GEOMETRY/SOLDERMASK_TOP*
G04 *
G04 Offset:    (0.0000 0.0000)*
G04 Mirror:    No*
G04 Mode:      Positive*
G04 Rotation:  0*
G04 FullContactRelief:  No*
G04 UndefLineWidth:     0.0000*
G04 ================== end FILE IDENTIFICATION RECORD ====================*
%FSLAX25Y25*MOIN*%
%IR0*IPPOS*OFA0.00000B0.00000*MIA0B0*SFA1.00000B1.00000*%
%ADD12C,.031496*%
%ADD10R,.047244X.066929*%
%ADD14R,.066929X.047244*%
%ADD16C,.07874*%
%ADD17R,.064961X.09252*%
%ADD18R,.082677X.082677*%
%ADD22R,.260827X.238193*%
%ADD20R,.05X.05*%
%ADD13R,.12X.076*%
%ADD19R,.055843X.069843*%
%ADD15R,.057843X.085843*%
%ADD21R,.085843X.057843*%
%ADD11R,.069843X.055843*%
%ADD23R,.096453X.057083*%
%LPD*%
G75*
G54D10*
X11211Y21407D03*
X19085D03*
X33474Y102549D03*
X29813Y131890D03*
X37687D03*
X29803Y121722D03*
X37677D03*
X67293Y52953D03*
X59419D03*
X59400Y67451D03*
X67274D03*
X41348Y102549D03*
X78425Y18967D03*
X86299D03*
X118465Y44213D03*
X126339D03*
X118484Y32530D03*
X126358D03*
X126319Y56112D03*
X118445D03*
X114606Y74419D03*
X106732D03*
X148238Y70443D03*
X140364D03*
X148327Y118868D03*
X140453D03*
X141526Y128789D03*
X133652D03*
G54D11*
X11203Y39931D03*
Y32231D03*
X19203Y36131D03*
X42620Y49298D03*
X50620Y53198D03*
X42620Y56998D03*
X58831Y116230D03*
Y108530D03*
X66831Y112430D03*
X53945Y140187D03*
X45945Y143987D03*
X53945Y147887D03*
X78516Y39852D03*
Y32152D03*
X86516Y36052D03*
X73496Y84938D03*
Y92638D03*
X81496Y88838D03*
X103329Y110351D03*
X111329Y114251D03*
X103329Y118051D03*
G54D20*
X42165Y67441D03*
X50565D03*
G54D21*
X61638Y76821D03*
G54D12*
X15285Y54114D03*
Y111644D03*
X36053Y139882D03*
X62913Y103219D03*
Y121634D03*
X74104Y26142D03*
X84281D03*
X93583Y112264D03*
X86959Y99085D03*
X73504D03*
X122648Y74429D03*
X120108Y114222D03*
X122648Y97096D03*
X120496Y138874D03*
G54D13*
X16703Y75219D03*
Y98819D03*
X143632Y56260D03*
Y32660D03*
G54D22*
X103433Y138874D03*
G54D23*
X78630Y129897D03*
Y147850D03*
G54D14*
X33494Y78435D03*
Y70561D03*
X15295Y126004D03*
Y118130D03*
X140364Y83691D03*
X129803Y82963D03*
X140364Y91565D03*
X129803Y90837D03*
X129823Y111122D03*
Y103248D03*
X143878Y139911D03*
X133650Y139893D03*
X143878Y147785D03*
X133650Y147767D03*
G54D15*
X33507Y88986D03*
X41407D03*
X140423Y103209D03*
X148323D03*
G54D16*
X20000Y137500D03*
X137500Y20000D03*
G54D17*
X64774Y26142D03*
X92500Y92569D03*
G54D18*
X42530Y21614D03*
Y30669D03*
X114744Y88041D03*
Y97096D03*
G54D19*
X55955Y84963D03*
X63655D03*
X59755Y92963D03*
X52825Y132055D03*
X45125D03*
X49025Y124055D03*
X99183Y26232D03*
X106883D03*
X102983Y34232D03*
M02*
