G04 ================== begin FILE IDENTIFICATION RECORD ==================*
G04 Layout Name:  V_PROIECT_STABILIZATOR_VARIANTA_FINALA_cu_fisiere.brd*
G04 Film Name:    SSTOP*
G04 File Format:  Gerber RS274X*
G04 File Origin:  Cadence Allegro 17.2-S025*
G04 Origin Date:  Sun Dec 14 00:05:42 2025*
G04 *
G04 Layer:  PACKAGE GEOMETRY/SILKSCREEN_TOP*
G04 Layer:  BOARD GEOMETRY/SILKSCREEN_TOP*
G04 *
G04 Offset:    (0.0000 0.0000)*
G04 Mirror:    No*
G04 Mode:      Positive*
G04 Rotation:  0*
G04 FullContactRelief:  No*
G04 UndefLineWidth:     0.0000*
G04 ================== end FILE IDENTIFICATION RECORD ====================*
%FSLAX25Y25*MOIN*%
%IR0*IPPOS*OFA0.00000B0.00000*MIA0B0*SFA1.00000B1.00000*%
%ADD10C,.007874*%
%ADD11C,.005906*%
%ADD12C,.006*%
G75*
%LPD*%
G75*
G54D10*
G01X15148Y23573D02*
Y19242D01*
G01X35659Y74498D02*
X31329D01*
G01X33750Y134055D02*
Y129724D01*
G01X33740Y123888D02*
Y119557D01*
G01X17461Y122067D02*
X13130D01*
G01X53652Y21614D02*
Y30472D01*
G01Y20236D02*
G03X59557Y26142I0J5906D01*
G03X53455Y32047I-5909J0D01*
G03X47746Y26142I194J-5899D01*
G03X53652Y20236I5906J0D01*
G01X63494Y20630D02*
Y16299D01*
X43809D01*
Y17480D01*
G01X58179Y26142D02*
X49124D01*
G01X43809Y25157D02*
Y27126D01*
G01X63494Y31654D02*
Y35984D01*
X43809D01*
Y34803D01*
G01X63356Y50787D02*
Y55118D01*
G01X63337Y69616D02*
Y65285D01*
G01X37411Y104715D02*
Y100384D01*
G01X82362Y21132D02*
Y16801D01*
G01X93780Y87057D02*
Y82726D01*
X113465D01*
Y83907D01*
G01X93780Y98081D02*
Y102412D01*
X113465D01*
Y101231D01*
G01X86976Y140370D02*
X84496D01*
Y140960D01*
X83236D01*
Y136787D01*
X84496D01*
Y137378D01*
X86976D01*
G01X111465Y151944D02*
X86976D01*
Y125803D01*
X111465D01*
G01X122402Y46378D02*
Y42047D01*
G01X122421Y34695D02*
Y30364D01*
G01X122382Y53947D02*
Y58278D01*
G01X110669Y72254D02*
Y76585D01*
G01X103622Y97096D02*
Y88238D01*
G01X99094Y92569D02*
X108150D01*
G01X103622Y98475D02*
G03X97716Y92569I0J-5906D01*
G03X103819Y86663I5909J0D01*
G03X109528Y92569I-194J5899D01*
G03X103622Y98475I-5906J0D01*
G01X113465Y93553D02*
Y91585D01*
G01X144301Y68278D02*
Y72608D01*
G01X142530Y87628D02*
X138199D01*
G01X131969Y86900D02*
X127638D01*
G01X131988Y107185D02*
X127657D01*
G01X141713Y143848D02*
X146043D01*
G01X144390Y116703D02*
Y121033D01*
G01X137589Y126624D02*
Y130955D01*
G01X135815Y143830D02*
X131485D01*
G54D11*
G01X6978Y85699D02*
X7215Y85896D01*
X7372Y86132D01*
X7451Y86407D01*
X7372Y86722D01*
X7215Y86959D01*
X6978Y87195D01*
X6663Y87274D01*
X5089D01*
G01X7451Y89448D02*
X5089D01*
X5561Y88976D01*
G01X7451D02*
Y89921D01*
G01X8819Y11909D02*
Y14272D01*
X9804D01*
X10119Y14154D01*
X10315Y13996D01*
X10394Y13681D01*
X10315Y13366D01*
X10079Y13169D01*
X9804Y13051D01*
X8819D01*
G01X9804D02*
X10394Y11909D01*
G01X12569D02*
Y14272D01*
X12096Y13799D01*
G01Y11909D02*
X13041D01*
G01X15452D02*
X15531Y12421D01*
X15649Y12854D01*
X15807Y13248D01*
X16004Y13681D01*
X16319Y14272D01*
X14744D01*
G01X8297Y17943D02*
Y24951D01*
G01X22077Y17943D02*
Y24951D01*
G01X21644Y17431D02*
X8612D01*
G01X24114Y43858D02*
X23799Y43898D01*
X23524Y44055D01*
X23287Y44291D01*
X23130Y44567D01*
X23051Y44882D01*
Y45197D01*
X23130Y45512D01*
X23287Y45787D01*
X23524Y46024D01*
X23799Y46181D01*
X24114Y46220D01*
X24429Y46181D01*
X24705Y46024D01*
X24941Y45787D01*
X25098Y45512D01*
X25177Y45197D01*
Y44882D01*
X25098Y44567D01*
X24941Y44291D01*
X24705Y44055D01*
X24429Y43898D01*
X24114Y43858D01*
G01X24429Y44488D02*
X24902Y43858D01*
G01X27076D02*
Y46220D01*
X26604Y45748D01*
G01Y43858D02*
X27549D01*
G01X15246Y42687D02*
X21939D01*
G01Y39537D02*
Y42687D01*
G01X11703Y34419D02*
Y37569D01*
G01X15246Y29695D02*
X21939D01*
Y32844D01*
G01X33130Y51850D02*
Y54213D01*
X33917D01*
X34232Y54094D01*
X34469Y53937D01*
X34665Y53701D01*
X34823Y53425D01*
X34862Y53031D01*
X34823Y52638D01*
X34665Y52362D01*
X34469Y52126D01*
X34232Y51969D01*
X33917Y51850D01*
X33130D01*
G01X36958D02*
Y54213D01*
X36486Y53740D01*
G01Y51850D02*
X37431D01*
G01X21722Y25344D02*
X8691D01*
G01X30606Y61102D02*
Y63465D01*
X31590D01*
X31905Y63346D01*
X32102Y63189D01*
X32180Y62874D01*
X32102Y62559D01*
X31865Y62362D01*
X31590Y62244D01*
X30606D01*
G01X31590D02*
X32180Y61102D01*
G01X34355D02*
Y63465D01*
X33883Y62992D01*
G01Y61102D02*
X34828D01*
G01X30030Y81348D02*
X37037D01*
G01X30030Y67569D02*
X37037D01*
G01X29518Y68002D02*
Y81033D01*
G01X27933Y86575D02*
X25571D01*
Y87362D01*
X25689Y87677D01*
X25846Y87913D01*
X26083Y88110D01*
X26358Y88268D01*
X26752Y88307D01*
X27146Y88268D01*
X27421Y88110D01*
X27657Y87913D01*
X27815Y87677D01*
X27933Y87362D01*
Y86575D01*
G01X25965Y89655D02*
X25728Y89891D01*
X25610Y90167D01*
X25571Y90482D01*
X25650Y90876D01*
X25846Y91151D01*
X26083Y91230D01*
X26319Y91191D01*
X26516Y91033D01*
X26909Y90246D01*
X27185Y89891D01*
X27579Y89655D01*
X27933Y89576D01*
Y91230D01*
G01X30611Y112037D02*
Y114400D01*
X31595D01*
X31910Y114281D01*
X32107Y114124D01*
X32185Y113809D01*
X32107Y113494D01*
X31870Y113297D01*
X31595Y113179D01*
X30611D01*
G01X31595D02*
X32185Y112037D01*
G01X33612Y114006D02*
X33848Y114242D01*
X34124Y114360D01*
X34439Y114400D01*
X34833Y114321D01*
X35108Y114124D01*
X35187Y113888D01*
X35148Y113652D01*
X34990Y113455D01*
X34203Y113061D01*
X33848Y112785D01*
X33612Y112392D01*
X33533Y112037D01*
X35187D01*
G01X37322D02*
Y114400D01*
X36850Y113927D01*
G01Y112037D02*
X37795D01*
G01X29508Y98869D02*
X27146D01*
Y99853D01*
X27264Y100168D01*
X27421Y100365D01*
X27736Y100443D01*
X28051Y100365D01*
X28248Y100128D01*
X28366Y99853D01*
Y98869D01*
G01Y99853D02*
X29508Y100443D01*
G01Y102618D02*
X27146D01*
X27618Y102146D01*
G01X29508D02*
Y103091D01*
G01X29232Y104911D02*
X29429Y105187D01*
X29508Y105502D01*
X29429Y105817D01*
X29193Y106092D01*
X28839Y106289D01*
X28484Y106368D01*
X28051D01*
X27697Y106289D01*
X27382Y106092D01*
X27224Y105856D01*
X27146Y105580D01*
X27224Y105265D01*
X27382Y105029D01*
X27618Y104872D01*
X27933Y104793D01*
X28209Y104872D01*
X28484Y105069D01*
X28642Y105305D01*
X28681Y105580D01*
X28602Y105895D01*
X28406Y106131D01*
X28051Y106368D01*
G01X30561Y99085D02*
Y106093D01*
G01X43986Y106486D02*
X30955D01*
G01X43907Y98573D02*
X30876D01*
G01X25374Y136850D02*
Y139213D01*
X26359D01*
X26674Y139094D01*
X26870Y138937D01*
X26949Y138622D01*
X26870Y138307D01*
X26634Y138110D01*
X26359Y137992D01*
X25374D01*
G01X26359D02*
X26949Y136850D01*
G01X28376Y138819D02*
X28612Y139055D01*
X28888Y139173D01*
X29203Y139213D01*
X29596Y139134D01*
X29872Y138937D01*
X29951Y138701D01*
X29911Y138465D01*
X29754Y138268D01*
X28967Y137874D01*
X28612Y137598D01*
X28376Y137205D01*
X28297Y136850D01*
X29951D01*
G01X31338Y138819D02*
X31574Y139055D01*
X31850Y139173D01*
X32165Y139213D01*
X32559Y139134D01*
X32834Y138937D01*
X32913Y138701D01*
X32874Y138465D01*
X32716Y138268D01*
X31929Y137874D01*
X31574Y137598D01*
X31338Y137205D01*
X31259Y136850D01*
X32913D01*
G01X26900Y128425D02*
Y135433D01*
G01X40325Y135827D02*
X27293D01*
G01X40246Y127913D02*
X27215D01*
G01X26890Y118258D02*
Y125266D01*
G01X40315Y125659D02*
X27283D01*
G01X40236Y117746D02*
X27205D01*
G01X8996Y119213D02*
X6634D01*
Y120197D01*
X6752Y120512D01*
X6909Y120709D01*
X7224Y120788D01*
X7539Y120709D01*
X7736Y120473D01*
X7854Y120197D01*
Y119213D01*
G01Y120197D02*
X8996Y120788D01*
G01X7028Y122215D02*
X6791Y122451D01*
X6673Y122726D01*
X6634Y123041D01*
X6713Y123435D01*
X6909Y123711D01*
X7146Y123789D01*
X7382Y123750D01*
X7579Y123593D01*
X7972Y122805D01*
X8248Y122451D01*
X8642Y122215D01*
X8996Y122136D01*
Y123789D01*
G01X6634Y125925D02*
X6713Y125610D01*
X6909Y125374D01*
X7146Y125216D01*
X7461Y125098D01*
X7815Y125059D01*
X8169Y125098D01*
X8484Y125216D01*
X8720Y125374D01*
X8917Y125610D01*
X8996Y125925D01*
X8917Y126240D01*
X8720Y126476D01*
X8484Y126633D01*
X8169Y126752D01*
X7815Y126791D01*
X7461Y126752D01*
X7146Y126633D01*
X6909Y126476D01*
X6713Y126240D01*
X6634Y125925D01*
G01X11831Y128917D02*
X18839D01*
G01X19232Y115492D02*
Y128524D01*
G01X11831Y115138D02*
X18839D01*
G01X11319Y115571D02*
Y128602D01*
G01X53920Y10849D02*
X53683Y10967D01*
X53408Y11046D01*
X53093D01*
X52739Y10928D01*
X52463Y10731D01*
X52266Y10494D01*
X52109Y10101D01*
X52069Y9746D01*
X52148Y9392D01*
X52266Y9156D01*
X52502Y8920D01*
X52778Y8762D01*
X53054Y8683D01*
X53329D01*
X53605Y8762D01*
X53841Y8880D01*
X54038Y9038D01*
G01X56016Y8683D02*
X55780Y8723D01*
X55543Y8880D01*
X55386Y9156D01*
X55307Y9471D01*
X55386Y9786D01*
X55543Y10061D01*
X55780Y10219D01*
X56016Y10258D01*
X56252Y10219D01*
X56488Y10061D01*
X56646Y9786D01*
X56685Y9471D01*
X56646Y9156D01*
X56488Y8880D01*
X56252Y8723D01*
X56016Y8683D01*
G01X58348Y8093D02*
X58624Y7935D01*
X58860Y7896D01*
X59175Y7975D01*
X59411Y8172D01*
X59529Y8526D01*
Y10258D01*
G01Y10888D02*
X59450Y10928D01*
Y11006D01*
X59529Y11046D01*
X59608Y11006D01*
Y10928D01*
X59529Y10888D01*
G01X62649Y8683D02*
Y10258D01*
G01Y9983D02*
X62491Y10140D01*
X62255Y10219D01*
X61980Y10258D01*
X61704Y10180D01*
X61468Y10022D01*
X61310Y9786D01*
X61231Y9471D01*
X61310Y9156D01*
X61468Y8920D01*
X61704Y8762D01*
X61980Y8683D01*
X62255Y8723D01*
X62491Y8841D01*
X62649Y8998D01*
G01X64233Y8683D02*
Y10258D01*
G01Y9865D02*
X64391Y10061D01*
X64627Y10219D01*
X64942Y10258D01*
X65217Y10219D01*
X65454Y10061D01*
X65572Y9786D01*
Y8683D01*
G01X67195Y10258D02*
Y9156D01*
X67353Y8880D01*
X67589Y8723D01*
X67865Y8683D01*
X68140Y8723D01*
X68376Y8880D01*
X68534Y9156D01*
G01Y8683D02*
Y10258D01*
G01X74655Y10849D02*
X74419Y10967D01*
X74143Y11046D01*
X73828D01*
X73474Y10928D01*
X73198Y10731D01*
X73002Y10494D01*
X72844Y10101D01*
X72805Y9746D01*
X72883Y9392D01*
X73002Y9156D01*
X73238Y8920D01*
X73513Y8762D01*
X73789Y8683D01*
X74065D01*
X74340Y8762D01*
X74576Y8880D01*
X74773Y9038D01*
G01X76751Y8683D02*
X76515Y8723D01*
X76279Y8880D01*
X76121Y9156D01*
X76043Y9471D01*
X76121Y9786D01*
X76279Y10061D01*
X76515Y10219D01*
X76751Y10258D01*
X76987Y10219D01*
X77224Y10061D01*
X77381Y9786D01*
X77420Y9471D01*
X77381Y9156D01*
X77224Y8880D01*
X76987Y8723D01*
X76751Y8683D01*
G01X79044D02*
Y10258D01*
G01Y9865D02*
X79202Y10061D01*
X79438Y10219D01*
X79753Y10258D01*
X80028Y10219D01*
X80265Y10061D01*
X80383Y9786D01*
Y8683D01*
G01X82085Y8959D02*
X82282Y8802D01*
X82557Y8683D01*
X82794D01*
X83030Y8762D01*
X83187Y8880D01*
X83266Y9038D01*
X83227Y9274D01*
X83069Y9392D01*
X82361Y9628D01*
X82203Y9904D01*
X82282Y10101D01*
X82439Y10219D01*
X82676Y10258D01*
X82912Y10219D01*
X83148Y10101D01*
G01X85638Y11046D02*
Y8683D01*
G01X85087Y10258D02*
X86189D01*
G01X89309Y8683D02*
Y10258D01*
G01Y9983D02*
X89151Y10140D01*
X88915Y10219D01*
X88639Y10258D01*
X88364Y10180D01*
X88128Y10022D01*
X87970Y9786D01*
X87891Y9471D01*
X87970Y9156D01*
X88128Y8920D01*
X88364Y8762D01*
X88639Y8683D01*
X88915Y8723D01*
X89151Y8841D01*
X89309Y8998D01*
G01X90893Y8683D02*
Y10258D01*
G01Y9865D02*
X91050Y10061D01*
X91287Y10219D01*
X91602Y10258D01*
X91877Y10219D01*
X92113Y10061D01*
X92231Y9786D01*
Y8683D01*
G01X94524Y11046D02*
Y8683D01*
G01X93973Y10258D02*
X95076D01*
G01X97487D02*
Y8683D01*
G01Y10888D02*
X97408Y10928D01*
Y11006D01*
X97487Y11046D01*
X97565Y11006D01*
Y10928D01*
X97487Y10888D01*
G01X99780Y8683D02*
Y10258D01*
G01Y9865D02*
X99937Y10061D01*
X100173Y10219D01*
X100488Y10258D01*
X100764Y10219D01*
X101000Y10061D01*
X101118Y9786D01*
Y8683D01*
G01X102899Y9471D02*
X103923D01*
G01X106373Y11046D02*
Y8683D01*
G01X105468Y11046D02*
X107279D01*
G01X108745Y9746D02*
X110005D01*
X109887Y10022D01*
X109690Y10180D01*
X109414Y10258D01*
X109139Y10219D01*
X108902Y10101D01*
X108745Y9825D01*
X108666Y9589D01*
Y9353D01*
X108745Y9117D01*
X108942Y8880D01*
X109178Y8723D01*
X109454Y8683D01*
X109729Y8762D01*
X110005Y8998D01*
G01X112298Y8683D02*
X112061Y8723D01*
X111825Y8880D01*
X111668Y9156D01*
X111589Y9471D01*
X111668Y9786D01*
X111825Y10061D01*
X112061Y10219D01*
X112298Y10258D01*
X112534Y10219D01*
X112770Y10061D01*
X112928Y9786D01*
X112967Y9471D01*
X112928Y9156D01*
X112770Y8880D01*
X112534Y8723D01*
X112298Y8683D01*
G01X115969Y11046D02*
Y8683D01*
G01Y9038D02*
X115811Y8841D01*
X115575Y8723D01*
X115299Y8683D01*
X114984Y8762D01*
X114748Y8959D01*
X114591Y9195D01*
X114551Y9471D01*
X114591Y9746D01*
X114748Y9983D01*
X114984Y10180D01*
X115299Y10258D01*
X115575Y10219D01*
X115772Y10140D01*
X115969Y9983D01*
G01X118222Y8683D02*
X117986Y8723D01*
X117750Y8880D01*
X117592Y9156D01*
X117513Y9471D01*
X117592Y9786D01*
X117750Y10061D01*
X117986Y10219D01*
X118222Y10258D01*
X118458Y10219D01*
X118694Y10061D01*
X118852Y9786D01*
X118891Y9471D01*
X118852Y9156D01*
X118694Y8880D01*
X118458Y8723D01*
X118222Y8683D01*
G01X120633D02*
Y10258D01*
G01Y9943D02*
X120830Y10101D01*
X121027Y10219D01*
X121302Y10258D01*
X121499Y10219D01*
X121735Y10101D01*
G01X55928Y5298D02*
Y7660D01*
X54471Y5967D01*
X56439D01*
G01X57669Y7266D02*
X57906Y7502D01*
X58181Y7620D01*
X58496Y7660D01*
X58890Y7581D01*
X59165Y7384D01*
X59244Y7148D01*
X59205Y6912D01*
X59047Y6715D01*
X58260Y6321D01*
X57906Y6046D01*
X57669Y5652D01*
X57591Y5298D01*
X59244D01*
G01X60513Y5770D02*
X60750Y5494D01*
X61065Y5337D01*
X61419Y5298D01*
X61734Y5337D01*
X62049Y5534D01*
X62246Y5770D01*
X62285Y6006D01*
X62206Y6282D01*
X61931Y6479D01*
X61655Y6557D01*
X61301D01*
G01X61655D02*
X61891Y6676D01*
X62088Y6872D01*
X62167Y7109D01*
X62088Y7345D01*
X61891Y7542D01*
X61537Y7660D01*
X61183Y7620D01*
X60828Y7463D01*
G01X63476Y5298D02*
Y7660D01*
X64263D01*
X64578Y7542D01*
X64814Y7384D01*
X65011Y7148D01*
X65169Y6872D01*
X65208Y6479D01*
X65169Y6085D01*
X65011Y5809D01*
X64814Y5573D01*
X64578Y5416D01*
X64263Y5298D01*
X63476D01*
G01X71132Y7463D02*
X70896Y7581D01*
X70620Y7660D01*
X70306D01*
X69951Y7542D01*
X69676Y7345D01*
X69479Y7109D01*
X69321Y6715D01*
X69282Y6361D01*
X69361Y6006D01*
X69479Y5770D01*
X69715Y5534D01*
X69991Y5376D01*
X70266Y5298D01*
X70542D01*
X70817Y5376D01*
X71054Y5494D01*
X71250Y5652D01*
G01X74016Y5298D02*
X72441D01*
Y7660D01*
X74016D01*
G01X73386Y6518D02*
X72441D01*
G01X75443Y5298D02*
Y7660D01*
X76939D01*
G01X76387Y6518D02*
X75443D01*
G01X81328Y5298D02*
Y7660D01*
X82272D01*
X82587Y7542D01*
X82824Y7266D01*
X82902Y6951D01*
X82824Y6636D01*
X82627Y6400D01*
X82272Y6282D01*
X81328D01*
G01X84526Y5298D02*
Y6872D01*
G01Y6557D02*
X84723Y6715D01*
X84920Y6833D01*
X85195Y6872D01*
X85392Y6833D01*
X85628Y6715D01*
G01X90254Y7266D02*
X90490Y7502D01*
X90765Y7620D01*
X91080Y7660D01*
X91474Y7581D01*
X91750Y7384D01*
X91828Y7148D01*
X91789Y6912D01*
X91631Y6715D01*
X90844Y6321D01*
X90490Y6046D01*
X90254Y5652D01*
X90175Y5298D01*
X91828D01*
G01X93964Y7660D02*
X93649Y7581D01*
X93413Y7384D01*
X93255Y7148D01*
X93137Y6833D01*
X93098Y6479D01*
X93137Y6124D01*
X93255Y5809D01*
X93413Y5573D01*
X93649Y5376D01*
X93964Y5298D01*
X94279Y5376D01*
X94515Y5573D01*
X94672Y5809D01*
X94791Y6124D01*
X94830Y6479D01*
X94791Y6833D01*
X94672Y7148D01*
X94515Y7384D01*
X94279Y7581D01*
X93964Y7660D01*
G01X96178Y7266D02*
X96414Y7502D01*
X96690Y7620D01*
X97005Y7660D01*
X97398Y7581D01*
X97674Y7384D01*
X97753Y7148D01*
X97713Y6912D01*
X97556Y6715D01*
X96769Y6321D01*
X96414Y6046D01*
X96178Y5652D01*
X96099Y5298D01*
X97753D01*
G01X99022Y5652D02*
X99258Y5455D01*
X99534Y5337D01*
X99888Y5298D01*
X100243Y5376D01*
X100518Y5534D01*
X100715Y5809D01*
X100754Y6124D01*
X100676Y6439D01*
X100479Y6636D01*
X100203Y6794D01*
X99928Y6833D01*
X99652Y6794D01*
X99298Y6636D01*
X99416Y7660D01*
X100479D01*
G01X102339Y6085D02*
X103362D01*
G01X105065Y7266D02*
X105301Y7502D01*
X105576Y7620D01*
X105891Y7660D01*
X106285Y7581D01*
X106561Y7384D01*
X106639Y7148D01*
X106600Y6912D01*
X106443Y6715D01*
X105655Y6321D01*
X105301Y6046D01*
X105065Y5652D01*
X104986Y5298D01*
X106639D01*
G01X108775Y7660D02*
X108460Y7581D01*
X108224Y7384D01*
X108066Y7148D01*
X107948Y6833D01*
X107909Y6479D01*
X107948Y6124D01*
X108066Y5809D01*
X108224Y5573D01*
X108460Y5376D01*
X108775Y5298D01*
X109090Y5376D01*
X109326Y5573D01*
X109483Y5809D01*
X109602Y6124D01*
X109641Y6479D01*
X109602Y6833D01*
X109483Y7148D01*
X109326Y7384D01*
X109090Y7581D01*
X108775Y7660D01*
G01X110989Y7266D02*
X111225Y7502D01*
X111501Y7620D01*
X111816Y7660D01*
X112209Y7581D01*
X112485Y7384D01*
X112564Y7148D01*
X112524Y6912D01*
X112367Y6715D01*
X111580Y6321D01*
X111225Y6046D01*
X110989Y5652D01*
X110910Y5298D01*
X112564D01*
G01X113951Y6282D02*
X114227Y6557D01*
X114463Y6715D01*
X114778Y6794D01*
X115054Y6715D01*
X115250Y6557D01*
X115408Y6321D01*
X115447Y6046D01*
X115408Y5809D01*
X115250Y5573D01*
X115014Y5376D01*
X114739Y5298D01*
X114424Y5376D01*
X114148Y5613D01*
X113991Y5967D01*
X113951Y6361D01*
X114030Y6872D01*
X114148Y7148D01*
X114345Y7424D01*
X114620Y7620D01*
X114896Y7660D01*
X115172Y7581D01*
X115369Y7384D01*
G01X43120Y51486D02*
Y54636D01*
G01X46663Y46762D02*
X53356D01*
Y49911D01*
G01X52825Y38238D02*
Y40600D01*
X53770D01*
X54085Y40482D01*
X54321Y40207D01*
X54400Y39892D01*
X54321Y39577D01*
X54124Y39341D01*
X53770Y39222D01*
X52825D01*
G01X55826Y40207D02*
X56063Y40443D01*
X56338Y40561D01*
X56653Y40600D01*
X57047Y40522D01*
X57322Y40325D01*
X57401Y40089D01*
X57362Y39852D01*
X57204Y39656D01*
X56417Y39262D01*
X56063Y38986D01*
X55826Y38593D01*
X55748Y38238D01*
X57401D01*
G01X61314Y44114D02*
Y46476D01*
X62298D01*
X62613Y46358D01*
X62810Y46201D01*
X62889Y45886D01*
X62810Y45571D01*
X62574Y45374D01*
X62298Y45256D01*
X61314D01*
G01X62298D02*
X62889Y44114D01*
G01X64198Y44587D02*
X64434Y44311D01*
X64749Y44154D01*
X65103Y44114D01*
X65418Y44154D01*
X65733Y44350D01*
X65930Y44587D01*
X65969Y44823D01*
X65891Y45098D01*
X65615Y45295D01*
X65339Y45374D01*
X64985D01*
G01X65339D02*
X65576Y45492D01*
X65772Y45689D01*
X65851Y45925D01*
X65772Y46161D01*
X65576Y46358D01*
X65221Y46476D01*
X64867Y46437D01*
X64513Y46280D01*
G01X56781Y49016D02*
X69813D01*
G01X56427Y56417D02*
Y49409D01*
G01X46663Y59754D02*
X53356D01*
G01Y56604D02*
Y59754D01*
G01X46860Y74980D02*
X46624Y75098D01*
X46348Y75177D01*
X46033D01*
X45679Y75059D01*
X45404Y74862D01*
X45207Y74626D01*
X45049Y74232D01*
X45010Y73878D01*
X45089Y73524D01*
X45207Y73287D01*
X45443Y73051D01*
X45719Y72894D01*
X45994Y72815D01*
X46270D01*
X46545Y72894D01*
X46781Y73012D01*
X46978Y73169D01*
G01X48956Y72815D02*
Y75177D01*
X48484Y74705D01*
G01Y72815D02*
X49429D01*
G01X56860Y56929D02*
X69892D01*
G01X56486Y63986D02*
Y70994D01*
G01X69911Y71388D02*
X56880D01*
G01X69833Y63474D02*
X56801D01*
G01X37431Y67923D02*
Y80955D01*
G01X54528Y97215D02*
X54213Y97254D01*
X53937Y97411D01*
X53701Y97648D01*
X53543Y97923D01*
X53465Y98238D01*
Y98553D01*
X53543Y98868D01*
X53701Y99144D01*
X53937Y99380D01*
X54213Y99537D01*
X54528Y99577D01*
X54843Y99537D01*
X55118Y99380D01*
X55354Y99144D01*
X55512Y98868D01*
X55591Y98553D01*
Y98238D01*
X55512Y97923D01*
X55354Y97648D01*
X55118Y97411D01*
X54843Y97254D01*
X54528Y97215D01*
G01X54843Y97844D02*
X55315Y97215D01*
G01X56624Y97687D02*
X56860Y97411D01*
X57175Y97254D01*
X57529Y97215D01*
X57844Y97254D01*
X58159Y97451D01*
X58356Y97687D01*
X58395Y97923D01*
X58317Y98199D01*
X58041Y98396D01*
X57765Y98474D01*
X57411D01*
G01X57765D02*
X58002Y98593D01*
X58198Y98789D01*
X58277Y99026D01*
X58198Y99262D01*
X58002Y99459D01*
X57647Y99577D01*
X57293Y99537D01*
X56939Y99380D01*
G01X53199Y89006D02*
Y95699D01*
G01X56348D02*
X53199D01*
G01X61467Y85463D02*
X58317D01*
G01X66191Y89006D02*
Y95699D01*
X63041D01*
G01X59331Y110719D02*
Y113868D01*
G01X62874Y105994D02*
X69567D01*
Y109144D01*
G01X44341Y99085D02*
Y106093D01*
G01X57480Y133671D02*
X57165Y133711D01*
X56890Y133868D01*
X56654Y134104D01*
X56496Y134380D01*
X56417Y134695D01*
Y135010D01*
X56496Y135325D01*
X56654Y135600D01*
X56890Y135837D01*
X57165Y135994D01*
X57480Y136033D01*
X57795Y135994D01*
X58071Y135837D01*
X58307Y135600D01*
X58465Y135325D01*
X58543Y135010D01*
Y134695D01*
X58465Y134380D01*
X58307Y134104D01*
X58071Y133868D01*
X57795Y133711D01*
X57480Y133671D01*
G01X57795Y134301D02*
X58268Y133671D01*
G01X60443D02*
X60718Y133711D01*
X61033Y133829D01*
X61230Y134026D01*
X61309Y134301D01*
X61230Y134577D01*
X60994Y134813D01*
X60639Y134931D01*
X60246D01*
X60009Y135010D01*
X59813Y135207D01*
X59734Y135482D01*
X59852Y135758D01*
X60128Y135955D01*
X60443Y136033D01*
X60757Y135955D01*
X61033Y135758D01*
X61151Y135482D01*
X61072Y135207D01*
X60876Y135010D01*
X60639Y134931D01*
X60246D01*
X59891Y134813D01*
X59655Y134577D01*
X59576Y134301D01*
X59655Y134026D01*
X59852Y133829D01*
X60167Y133711D01*
X60443Y133671D01*
G01X55581Y128012D02*
Y121319D01*
G01X52431D02*
X55581D01*
G01X47313Y131555D02*
X50463D01*
G01X42589Y128012D02*
Y121319D01*
X45738D01*
G01X62874Y118986D02*
X69567D01*
G01X59242Y144478D02*
X58927Y144518D01*
X58652Y144675D01*
X58415Y144911D01*
X58258Y145187D01*
X58179Y145502D01*
Y145817D01*
X58258Y146132D01*
X58415Y146407D01*
X58652Y146644D01*
X58927Y146801D01*
X59242Y146841D01*
X59557Y146801D01*
X59833Y146644D01*
X60069Y146407D01*
X60226Y146132D01*
X60305Y145817D01*
Y145502D01*
X60226Y145187D01*
X60069Y144911D01*
X59833Y144675D01*
X59557Y144518D01*
X59242Y144478D01*
G01X59557Y145108D02*
X60030Y144478D01*
G01X61456Y145463D02*
X61732Y145738D01*
X61968Y145896D01*
X62283Y145974D01*
X62559Y145896D01*
X62756Y145738D01*
X62913Y145502D01*
X62952Y145226D01*
X62913Y144990D01*
X62756Y144754D01*
X62519Y144557D01*
X62244Y144478D01*
X61929Y144557D01*
X61653Y144793D01*
X61496Y145148D01*
X61456Y145541D01*
X61535Y146053D01*
X61653Y146329D01*
X61850Y146604D01*
X62126Y146801D01*
X62401Y146841D01*
X62677Y146762D01*
X62874Y146565D01*
G01X49902Y137431D02*
X43209D01*
G01Y140581D02*
Y137431D01*
G01X53445Y145699D02*
Y142549D01*
G01X40679Y128425D02*
Y135433D01*
G01X40669Y118258D02*
Y125266D01*
G01X49902Y150423D02*
X43209D01*
Y147274D01*
G01X92235Y15492D02*
Y17854D01*
X93219D01*
X93534Y17736D01*
X93731Y17579D01*
X93809Y17264D01*
X93731Y16949D01*
X93494Y16752D01*
X93219Y16634D01*
X92235D01*
G01X93219D02*
X93809Y15492D01*
G01X95984D02*
Y17854D01*
X95512Y17382D01*
G01Y15492D02*
X96457D01*
G01X98946D02*
X99222Y15531D01*
X99537Y15650D01*
X99734Y15846D01*
X99813Y16122D01*
X99734Y16398D01*
X99498Y16634D01*
X99143Y16752D01*
X98750D01*
X98513Y16831D01*
X98317Y17028D01*
X98238Y17303D01*
X98356Y17579D01*
X98631Y17776D01*
X98946Y17854D01*
X99261Y17776D01*
X99537Y17579D01*
X99655Y17303D01*
X99576Y17028D01*
X99380Y16831D01*
X99143Y16752D01*
X98750D01*
X98395Y16634D01*
X98159Y16398D01*
X98080Y16122D01*
X98159Y15846D01*
X98356Y15650D01*
X98671Y15531D01*
X98946Y15492D01*
G01X75512Y15502D02*
Y22510D01*
G01X88937Y22904D02*
X75906D01*
G01X89291Y15502D02*
Y22510D01*
G01X88858Y14990D02*
X75827D01*
G01X89528Y44173D02*
X89213Y44213D01*
X88937Y44370D01*
X88701Y44606D01*
X88543Y44882D01*
X88465Y45197D01*
Y45512D01*
X88543Y45827D01*
X88701Y46102D01*
X88937Y46339D01*
X89213Y46496D01*
X89528Y46535D01*
X89843Y46496D01*
X90118Y46339D01*
X90354Y46102D01*
X90512Y45827D01*
X90591Y45512D01*
Y45197D01*
X90512Y44882D01*
X90354Y44606D01*
X90118Y44370D01*
X89843Y44213D01*
X89528Y44173D01*
G01X89843Y44803D02*
X90315Y44173D01*
G01X91742Y46142D02*
X91978Y46378D01*
X92254Y46496D01*
X92569Y46535D01*
X92962Y46457D01*
X93238Y46260D01*
X93317Y46024D01*
X93277Y45787D01*
X93120Y45591D01*
X92332Y45197D01*
X91978Y44921D01*
X91742Y44528D01*
X91663Y44173D01*
X93317D01*
G01X82559Y42608D02*
X89252D01*
G01Y39459D02*
Y42608D01*
G01X79016Y34341D02*
Y37490D01*
G01X82559Y29616D02*
X89252D01*
Y32766D01*
G01X94488Y38248D02*
X94173Y38287D01*
X93898Y38445D01*
X93661Y38681D01*
X93504Y38957D01*
X93425Y39272D01*
Y39587D01*
X93504Y39902D01*
X93661Y40177D01*
X93898Y40413D01*
X94173Y40571D01*
X94488Y40610D01*
X94803Y40571D01*
X95079Y40413D01*
X95315Y40177D01*
X95472Y39902D01*
X95551Y39587D01*
Y39272D01*
X95472Y38957D01*
X95315Y38681D01*
X95079Y38445D01*
X94803Y38287D01*
X94488Y38248D01*
G01X94803Y38878D02*
X95276Y38248D01*
G01X97450D02*
Y40610D01*
X96978Y40138D01*
G01Y38248D02*
X97923D01*
G01X100413Y40610D02*
X100098Y40531D01*
X99861Y40335D01*
X99704Y40098D01*
X99586Y39783D01*
X99546Y39429D01*
X99586Y39075D01*
X99704Y38760D01*
X99861Y38524D01*
X100098Y38327D01*
X100413Y38248D01*
X100728Y38327D01*
X100964Y38524D01*
X101121Y38760D01*
X101239Y39075D01*
X101279Y39429D01*
X101239Y39783D01*
X101121Y40098D01*
X100964Y40335D01*
X100728Y40531D01*
X100413Y40610D01*
G01X70207Y56417D02*
Y49409D01*
G01X78799Y79065D02*
X78484Y79104D01*
X78209Y79262D01*
X77972Y79498D01*
X77815Y79774D01*
X77736Y80089D01*
Y80404D01*
X77815Y80719D01*
X77972Y80994D01*
X78209Y81230D01*
X78484Y81388D01*
X78799Y81427D01*
X79114Y81388D01*
X79390Y81230D01*
X79626Y80994D01*
X79783Y80719D01*
X79862Y80404D01*
Y80089D01*
X79783Y79774D01*
X79626Y79498D01*
X79390Y79262D01*
X79114Y79104D01*
X78799Y79065D01*
G01X79114Y79695D02*
X79587Y79065D01*
G01X82234D02*
Y81427D01*
X80777Y79734D01*
X82746D01*
G01X77539Y82402D02*
X84232D01*
Y85551D01*
G01X71895Y66280D02*
Y68642D01*
X72879D01*
X73194Y68524D01*
X73391Y68366D01*
X73470Y68051D01*
X73391Y67736D01*
X73155Y67539D01*
X72879Y67421D01*
X71895D01*
G01X72879D02*
X73470Y66280D01*
G01X74896Y68248D02*
X75133Y68484D01*
X75408Y68602D01*
X75723Y68642D01*
X76117Y68563D01*
X76393Y68366D01*
X76471Y68130D01*
X76432Y67894D01*
X76274Y67697D01*
X75487Y67303D01*
X75133Y67028D01*
X74896Y66634D01*
X74818Y66280D01*
X76471D01*
G01X70266Y63986D02*
Y70994D01*
G01X77539Y95394D02*
X84232D01*
G01Y92244D02*
Y95394D01*
G01X73996Y87126D02*
Y90276D01*
G01X94173Y104380D02*
Y106742D01*
X95118D01*
X95433Y106624D01*
X95669Y106348D01*
X95748Y106033D01*
X95669Y105719D01*
X95472Y105482D01*
X95118Y105364D01*
X94173D01*
G01X97923Y104380D02*
Y106742D01*
X97450Y106270D01*
G01Y104380D02*
X98395D01*
G01X69056Y120707D02*
X68741Y120746D01*
X68466Y120904D01*
X68230Y121140D01*
X68072Y121415D01*
X67993Y121730D01*
Y122045D01*
X68072Y122360D01*
X68230Y122636D01*
X68466Y122872D01*
X68741Y123030D01*
X69056Y123069D01*
X69371Y123030D01*
X69647Y122872D01*
X69883Y122636D01*
X70041Y122360D01*
X70119Y122045D01*
Y121730D01*
X70041Y121415D01*
X69883Y121140D01*
X69647Y120904D01*
X69371Y120746D01*
X69056Y120707D01*
G01X69371Y121337D02*
X69844Y120707D01*
G01X71349Y120982D02*
X71625Y120785D01*
X71940Y120707D01*
X72255Y120785D01*
X72530Y121022D01*
X72727Y121376D01*
X72806Y121730D01*
Y122163D01*
X72727Y122518D01*
X72530Y122833D01*
X72294Y122990D01*
X72019Y123069D01*
X71704Y122990D01*
X71467Y122833D01*
X71310Y122596D01*
X71231Y122281D01*
X71310Y122006D01*
X71507Y121730D01*
X71743Y121573D01*
X72019Y121533D01*
X72333Y121612D01*
X72570Y121809D01*
X72806Y122163D01*
G01X69567Y115837D02*
Y118986D01*
G01X119631Y23376D02*
Y25738D01*
X120615D01*
X120930Y25620D01*
X121127Y25463D01*
X121206Y25148D01*
X121127Y24833D01*
X120891Y24636D01*
X120615Y24518D01*
X119631D01*
G01X120615D02*
X121206Y23376D01*
G01X122711Y23652D02*
X122987Y23455D01*
X123302Y23376D01*
X123617Y23455D01*
X123893Y23691D01*
X124089Y24045D01*
X124168Y24400D01*
Y24833D01*
X124089Y25187D01*
X123893Y25502D01*
X123656Y25659D01*
X123381Y25738D01*
X123066Y25659D01*
X122830Y25502D01*
X122672Y25266D01*
X122593Y24951D01*
X122672Y24675D01*
X122869Y24400D01*
X123105Y24242D01*
X123381Y24203D01*
X123696Y24281D01*
X123932Y24478D01*
X124168Y24833D01*
G01X96427Y30276D02*
Y36969D01*
G01X99577D02*
X96427D01*
G01X104695Y26732D02*
X101545D01*
G01X109419Y30276D02*
Y36969D01*
X106270D01*
G01X105906Y42510D02*
Y44872D01*
X106890D01*
X107205Y44754D01*
X107402Y44596D01*
X107481Y44281D01*
X107402Y43967D01*
X107166Y43770D01*
X106890Y43652D01*
X105906D01*
G01X106890D02*
X107481Y42510D01*
G01X109656D02*
Y44872D01*
X109183Y44400D01*
G01Y42510D02*
X110128D01*
G01X112618Y44872D02*
X112303Y44793D01*
X112067Y44596D01*
X111909Y44360D01*
X111791Y44045D01*
X111752Y43691D01*
X111791Y43337D01*
X111909Y43022D01*
X112067Y42785D01*
X112303Y42589D01*
X112618Y42510D01*
X112933Y42589D01*
X113169Y42785D01*
X113326Y43022D01*
X113444Y43337D01*
X113484Y43691D01*
X113444Y44045D01*
X113326Y44360D01*
X113169Y44596D01*
X112933Y44793D01*
X112618Y44872D01*
G01X115551Y40748D02*
Y47756D01*
G01X128976Y48150D02*
X115945D01*
G01X128898Y40236D02*
X115866D01*
G01X115571Y29065D02*
Y36073D01*
G01X128996Y36467D02*
X115965D01*
G01X128917Y28553D02*
X115886D01*
G01X115807Y52175D02*
X128839D01*
G01X115453Y59577D02*
Y52569D01*
G01X115891Y61909D02*
Y64272D01*
X116875D01*
X117190Y64154D01*
X117387Y63996D01*
X117466Y63681D01*
X117387Y63366D01*
X117151Y63169D01*
X116875Y63051D01*
X115891D01*
G01X116875D02*
X117466Y61909D01*
G01X119641D02*
X119916Y61949D01*
X120231Y62067D01*
X120428Y62264D01*
X120507Y62539D01*
X120428Y62815D01*
X120192Y63051D01*
X119837Y63169D01*
X119444D01*
X119207Y63248D01*
X119011Y63445D01*
X118932Y63720D01*
X119050Y63996D01*
X119326Y64193D01*
X119641Y64272D01*
X119956Y64193D01*
X120231Y63996D01*
X120349Y63720D01*
X120270Y63445D01*
X120074Y63248D01*
X119837Y63169D01*
X119444D01*
X119089Y63051D01*
X118853Y62815D01*
X118774Y62539D01*
X118853Y62264D01*
X119050Y62067D01*
X119365Y61949D01*
X119641Y61909D01*
G01X115886Y60089D02*
X128917D01*
G01X105802Y64409D02*
Y66772D01*
X106787D01*
X107102Y66654D01*
X107298Y66496D01*
X107377Y66181D01*
X107298Y65866D01*
X107062Y65669D01*
X106787Y65551D01*
X105802D01*
G01X106787D02*
X107377Y64409D01*
G01X108804Y65394D02*
X109080Y65669D01*
X109316Y65827D01*
X109631Y65906D01*
X109906Y65827D01*
X110103Y65669D01*
X110261Y65433D01*
X110300Y65157D01*
X110261Y64921D01*
X110103Y64685D01*
X109867Y64488D01*
X109591Y64409D01*
X109276Y64488D01*
X109001Y64724D01*
X108843Y65079D01*
X108804Y65472D01*
X108883Y65984D01*
X109001Y66260D01*
X109198Y66535D01*
X109473Y66732D01*
X109749Y66772D01*
X110024Y66693D01*
X110221Y66496D01*
G01X117520Y77884D02*
Y70876D01*
G01X104094Y70482D02*
X117126D01*
G01X103740Y77884D02*
Y70876D01*
G01X104173Y78396D02*
X117205D01*
G01X103829Y112539D02*
Y115689D01*
G01X107372Y107815D02*
X114065D01*
Y110965D01*
G01X125492Y104257D02*
X123130D01*
Y105241D01*
X123248Y105556D01*
X123406Y105753D01*
X123720Y105832D01*
X124035Y105753D01*
X124232Y105517D01*
X124350Y105241D01*
Y104257D01*
G01Y105241D02*
X125492Y105832D01*
G01Y108479D02*
X123130D01*
X124823Y107022D01*
Y108991D01*
G01X117195Y118435D02*
X116880Y118474D01*
X116604Y118632D01*
X116368Y118868D01*
X116211Y119144D01*
X116132Y119459D01*
Y119774D01*
X116211Y120089D01*
X116368Y120364D01*
X116604Y120600D01*
X116880Y120758D01*
X117195Y120797D01*
X117510Y120758D01*
X117785Y120600D01*
X118022Y120364D01*
X118179Y120089D01*
X118258Y119774D01*
Y119459D01*
X118179Y119144D01*
X118022Y118868D01*
X117785Y118632D01*
X117510Y118474D01*
X117195Y118435D01*
G01X117510Y119065D02*
X117982Y118435D01*
G01X119291Y118789D02*
X119527Y118593D01*
X119803Y118474D01*
X120157Y118435D01*
X120511Y118514D01*
X120787Y118671D01*
X120984Y118947D01*
X121023Y119262D01*
X120944Y119577D01*
X120748Y119774D01*
X120472Y119931D01*
X120196Y119970D01*
X119921Y119931D01*
X119567Y119774D01*
X119685Y120797D01*
X120748D01*
G01X107372Y120807D02*
X114065D01*
G01Y117657D02*
Y120807D01*
G01X119606Y149951D02*
X119291Y149990D01*
X119016Y150148D01*
X118780Y150384D01*
X118622Y150659D01*
X118543Y150974D01*
Y151289D01*
X118622Y151604D01*
X118780Y151880D01*
X119016Y152116D01*
X119291Y152274D01*
X119606Y152313D01*
X119921Y152274D01*
X120197Y152116D01*
X120433Y151880D01*
X120591Y151604D01*
X120669Y151289D01*
Y150974D01*
X120591Y150659D01*
X120433Y150384D01*
X120197Y150148D01*
X119921Y149990D01*
X119606Y149951D01*
G01X119921Y150581D02*
X120394Y149951D01*
G01X122490D02*
X122569Y150463D01*
X122687Y150896D01*
X122844Y151289D01*
X123041Y151722D01*
X123356Y152313D01*
X121781D01*
G01X133671Y43533D02*
X133907Y43730D01*
X134065Y43967D01*
X134144Y44242D01*
X134065Y44557D01*
X133907Y44793D01*
X133671Y45030D01*
X133356Y45108D01*
X131781D01*
G01X133671Y46417D02*
X133947Y46653D01*
X134104Y46968D01*
X134144Y47322D01*
X134104Y47637D01*
X133907Y47952D01*
X133671Y48149D01*
X133435Y48189D01*
X133159Y48110D01*
X132963Y47834D01*
X132884Y47559D01*
Y47204D01*
G01Y47559D02*
X132766Y47795D01*
X132569Y47992D01*
X132333Y48070D01*
X132096Y47992D01*
X131900Y47795D01*
X131781Y47441D01*
X131821Y47086D01*
X131978Y46732D01*
G01X129331Y40748D02*
Y47756D01*
G01X129350Y29065D02*
Y36073D01*
G01X129232Y59577D02*
Y52569D01*
G01X144301Y81053D02*
Y94085D01*
G01X136900Y80699D02*
X143907D01*
G01X136388Y81132D02*
Y94163D01*
G01X143017Y76132D02*
Y78494D01*
X144001D01*
X144316Y78376D01*
X144513Y78219D01*
X144592Y77904D01*
X144513Y77589D01*
X144277Y77392D01*
X144001Y77274D01*
X143017D01*
G01X144001D02*
X144592Y76132D01*
G01X146688D02*
X146767Y76644D01*
X146885Y77077D01*
X147042Y77470D01*
X147239Y77904D01*
X147554Y78494D01*
X145979D01*
G01X151152Y73907D02*
Y66900D01*
G01X137726Y66506D02*
X150758D01*
G01X137372Y73907D02*
Y66900D01*
G01X137805Y74419D02*
X150837D01*
G01X127308Y74872D02*
Y77234D01*
X128293D01*
X128607Y77116D01*
X128804Y76959D01*
X128883Y76644D01*
X128804Y76329D01*
X128568Y76132D01*
X128293Y76014D01*
X127308D01*
G01X128293D02*
X128883Y74872D01*
G01X130192Y75226D02*
X130428Y75030D01*
X130704Y74911D01*
X131058Y74872D01*
X131412Y74951D01*
X131688Y75108D01*
X131885Y75384D01*
X131924Y75699D01*
X131845Y76014D01*
X131648Y76211D01*
X131373Y76368D01*
X131097Y76407D01*
X130822Y76368D01*
X130467Y76211D01*
X130585Y77234D01*
X131648D01*
G01X133740Y80325D02*
Y93356D01*
G01X126339Y79970D02*
X133346D01*
G01X125827Y80404D02*
Y93435D01*
G01X141171Y109449D02*
Y111811D01*
X141959D01*
X142274Y111693D01*
X142510Y111535D01*
X142707Y111299D01*
X142864Y111024D01*
X142904Y110630D01*
X142864Y110236D01*
X142707Y109961D01*
X142510Y109724D01*
X142274Y109567D01*
X141959Y109449D01*
X141171D01*
G01X144133Y109921D02*
X144370Y109646D01*
X144685Y109488D01*
X145039Y109449D01*
X145354Y109488D01*
X145669Y109685D01*
X145866Y109921D01*
X145905Y110157D01*
X145826Y110433D01*
X145551Y110630D01*
X145275Y110709D01*
X144921D01*
G01X145275D02*
X145511Y110827D01*
X145708Y111024D01*
X145787Y111260D01*
X145708Y111496D01*
X145511Y111693D01*
X145157Y111811D01*
X144803Y111772D01*
X144448Y111614D01*
G01X149311Y85119D02*
X146949D01*
Y86103D01*
X147067Y86418D01*
X147224Y86615D01*
X147539Y86693D01*
X147854Y86615D01*
X148051Y86378D01*
X148169Y86103D01*
Y85119D01*
G01Y86103D02*
X149311Y86693D01*
G01Y88868D02*
X146949D01*
X147421Y88396D01*
G01X149311D02*
Y89341D01*
G01Y91830D02*
X146949D01*
X147421Y91358D01*
G01X149311D02*
Y92303D01*
G01X136900Y94478D02*
X143907D01*
G01X126339Y93750D02*
X133346D01*
G01X133760Y100610D02*
Y113642D01*
G01X126358Y100256D02*
X133366D01*
G01X125846Y100689D02*
Y113720D01*
G01X152894Y140867D02*
X150531D01*
Y141851D01*
X150650Y142166D01*
X150807Y142363D01*
X151122Y142441D01*
X151437Y142363D01*
X151634Y142126D01*
X151752Y141851D01*
Y140867D01*
G01Y141851D02*
X152894Y142441D01*
G01Y144616D02*
X150531D01*
X151004Y144144D01*
G01X152894D02*
Y145089D01*
G01X151909Y146830D02*
X151634Y147106D01*
X151476Y147342D01*
X151398Y147657D01*
X151476Y147933D01*
X151634Y148130D01*
X151870Y148287D01*
X152146Y148326D01*
X152382Y148287D01*
X152618Y148130D01*
X152815Y147893D01*
X152894Y147618D01*
X152815Y147303D01*
X152579Y147027D01*
X152224Y146870D01*
X151831Y146830D01*
X151319Y146909D01*
X151043Y147027D01*
X150768Y147224D01*
X150571Y147500D01*
X150531Y147775D01*
X150610Y148051D01*
X150807Y148248D01*
G01X147343Y136998D02*
X140335D01*
G01X139941Y150423D02*
Y137392D01*
G01X147854Y150344D02*
Y137313D01*
G01X128307Y116939D02*
Y119301D01*
X129292D01*
X129607Y119183D01*
X129804Y119026D01*
X129882Y118711D01*
X129804Y118396D01*
X129567Y118199D01*
X129292Y118081D01*
X128307D01*
G01X129292D02*
X129882Y116939D01*
G01X132057D02*
Y119301D01*
X131585Y118829D01*
G01Y116939D02*
X132530D01*
G01X134153Y117293D02*
X134389Y117096D01*
X134665Y116978D01*
X135019Y116939D01*
X135374Y117018D01*
X135649Y117175D01*
X135846Y117451D01*
X135885Y117766D01*
X135807Y118081D01*
X135610Y118278D01*
X135334Y118435D01*
X135059Y118474D01*
X134783Y118435D01*
X134429Y118278D01*
X134547Y119301D01*
X135610D01*
G01X151240Y122333D02*
Y115325D01*
G01X137815Y114931D02*
X150846D01*
G01X137461Y122333D02*
Y115325D01*
G01X137894Y122844D02*
X150925D01*
G01X150915Y124872D02*
X148553D01*
Y125857D01*
X148671Y126172D01*
X148829Y126369D01*
X149144Y126447D01*
X149459Y126369D01*
X149656Y126132D01*
X149774Y125857D01*
Y124872D01*
G01Y125857D02*
X150915Y126447D01*
G01Y128622D02*
X148553D01*
X149026Y128150D01*
G01X150915D02*
Y129094D01*
G01Y132057D02*
X148553D01*
X150246Y130600D01*
Y132569D01*
G01X144439Y132254D02*
Y125246D01*
G01X131014Y124852D02*
X144045D01*
G01X130659Y132254D02*
Y125246D01*
G01X131093Y132766D02*
X144124D01*
G01X128524Y139981D02*
X126161D01*
Y140965D01*
X126280Y141280D01*
X126437Y141477D01*
X126752Y141556D01*
X127067Y141477D01*
X127264Y141241D01*
X127382Y140965D01*
Y139981D01*
G01Y140965D02*
X128524Y141556D01*
G01Y143730D02*
X126161D01*
X126634Y143258D01*
G01X128524D02*
Y144203D01*
G01X128051Y145826D02*
X128327Y146063D01*
X128484Y146378D01*
X128524Y146732D01*
X128484Y147047D01*
X128287Y147362D01*
X128051Y147559D01*
X127815Y147598D01*
X127539Y147519D01*
X127343Y147244D01*
X127264Y146968D01*
Y146614D01*
G01Y146968D02*
X127146Y147204D01*
X126949Y147401D01*
X126713Y147480D01*
X126476Y147401D01*
X126280Y147204D01*
X126161Y146850D01*
X126201Y146496D01*
X126358Y146141D01*
G01X137587Y137255D02*
Y150287D01*
G01X130185Y136901D02*
X137193D01*
G01X129674Y137334D02*
Y150365D01*
G01X126358Y114035D02*
X133366D01*
G01X147343Y150778D02*
X140335D01*
G01X130185Y150680D02*
X137193D01*
G54D12*
G01X9203Y69769D02*
X24203D01*
G01D02*
Y104269D01*
G01X9203D02*
Y69769D01*
G01X29607Y94136D02*
X45407D01*
G01Y83836D02*
X29607D01*
G01D02*
Y94136D01*
G01X24203Y104269D02*
X9203D01*
G01X54365Y63691D02*
X38365D01*
G01D02*
Y71191D01*
G01D02*
X54365D01*
G01D02*
Y63691D01*
G01X45407Y94136D02*
Y89836D01*
G01D02*
X46257Y88986D01*
G01D02*
X45407Y88136D01*
G01D02*
Y83836D01*
G01X136132Y27210D02*
X151132D01*
G01D02*
Y61710D01*
G01X136132D02*
Y27210D01*
G01X151132Y61710D02*
X136132D01*
G01X152223Y98059D02*
X136423D01*
G01D02*
Y102359D01*
G01D02*
X135573Y103209D01*
G01D02*
X136423Y104059D01*
G01D02*
Y108359D01*
G01D02*
X152223D01*
G01D02*
Y98059D01*
M02*
