G04 ================== begin FILE IDENTIFICATION RECORD ==================*
G04 Layout Name:  V_PROIECT_STABILIZATOR_VARIANTA_FINALA_cu_fisiere.brd*
G04 Film Name:    TOP*
G04 File Format:  Gerber RS274X*
G04 File Origin:  Cadence Allegro 17.2-S025*
G04 Origin Date:  Sun Dec 14 00:05:42 2025*
G04 *
G04 Layer:  ETCH/TOP*
G04 Layer:  PIN/TOP*
G04 Layer:  VIA CLASS/TOP*
G04 *
G04 Offset:    (0.0000 0.0000)*
G04 Mirror:    No*
G04 Mode:      Positive*
G04 Rotation:  0*
G04 FullContactRelief:  No*
G04 UndefLineWidth:     0.1000*
G04 ================== end FILE IDENTIFICATION RECORD ====================*
%FSLAX25Y25*MOIN*%
%IR0*IPPOS*OFA0.00000B0.00000*MIA0B0*SFA1.00000B1.00000*%
%ADD23R,.08661X.04724*%
%ADD12C,.027559*%
%ADD10R,.037402X.057087*%
%ADD14R,.057087X.037402*%
%ADD19R,.036X.05*%
%ADD11R,.05X.036*%
%ADD17R,.051181X.07874*%
%ADD16C,.03937*%
%ADD22R,.251969X.22835*%
%ADD18R,.051181X.051181*%
%ADD20R,.05X.05*%
%ADD15R,.048X.076*%
%ADD13R,.12X.076*%
%ADD21R,.076X.048*%
%ADD24C,.016*%
%ADD25C,.026*%
%ADD26C,.018*%
%ADD27C,.079386*%
G75*
%LPD*%
G75*
G36*
G01X13940Y3940D02*
G02X3940Y13940I0J10000D01*
G01Y143540D01*
G02X13940Y153540I10000J0D01*
G01X143530D01*
G02X153530Y143540I0J-10000D01*
G01Y13940D01*
G02X143530Y3940I-10000J0D01*
G01X13940D01*
G37*
%LPC*%
G75*
G36*
G01X135631Y28860D02*
Y36460D01*
G02X137632Y38461I2001J0D01*
G01X149632D01*
G02X151633Y36460I0J-2001D01*
G01Y28860D01*
G02X149632Y26859I-2001J0D01*
G01X137632D01*
G02X135631Y28860I0J2001D01*
G37*
G36*
G01X103574Y71565D02*
Y77274D01*
G02X104862Y78562I1288J0D01*
G01X108602D01*
G02X109891Y77274I0J-1288D01*
G01Y71565D01*
G02X108602Y70277I-1288J0D01*
G01X104862D01*
G02X103574Y71565I0J1288D01*
G37*
G36*
G01X123200Y29675D02*
Y35384D01*
G02X124488Y36672I1288J0D01*
G01X128228D01*
G02X129517Y35384I0J-1288D01*
G01Y29675D01*
G02X128228Y28387I-1288J0D01*
G01X124488D01*
G02X123200Y29675I0J1288D01*
G37*
G36*
G01X123180Y41358D02*
Y47067D01*
G02X124469Y48355I1288J0D01*
G01X128209D01*
G02X129497Y47067I0J-1288D01*
G01Y41358D01*
G02X128209Y40070I-1288J0D01*
G01X124469D01*
G02X123180Y41358I0J1288D01*
G37*
G36*
G01X56261Y50098D02*
Y55807D01*
G02X57549Y57095I1288J0D01*
G01X61289D01*
G02X62578Y55807I0J-1288D01*
G01Y50098D01*
G02X61289Y48810I-1288J0D01*
G01X57549D01*
G02X56261Y50098I0J1288D01*
G37*
G36*
G01X8702Y71419D02*
Y79019D01*
G02X10703Y81020I2001J0D01*
G01X22703D01*
G02X24704Y79019I0J-2001D01*
G01Y71419D01*
G02X22703Y69418I-2001J0D01*
G01X10703D01*
G02X8702Y71419I0J2001D01*
G37*
G36*
G01X15926Y18553D02*
Y24262D01*
G02X17215Y25550I1288J0D01*
G01X20955D01*
G02X22243Y24262I0J-1288D01*
G01Y18553D01*
G02X20955Y17265I-1288J0D01*
G01X17215D01*
G02X15926Y18553I0J1288D01*
G37*
G36*
G01X88169Y14111D02*
X76555D01*
G02X74554Y16112I0J2001D01*
G01Y21821D01*
G02X74563Y22005I2001J2D01*
G03X74159Y22441I-398J37D01*
G02X74104Y22441I-54J3700D01*
G01X69333D01*
Y22205D01*
G02X67333Y20204I-2001J0D01*
G01X62215D01*
G02X60214Y22205I0J2001D01*
G01Y30079D01*
G02X62215Y32080I2001J0D01*
G01X67333D01*
G02X69333Y30079I0J-2001D01*
G01Y29843D01*
X73617D01*
G03X74017Y30261I0J400D01*
G02X74015Y30352I1999J89D01*
G01Y33952D01*
G02X74816Y35554I2001J0D01*
G01X74896Y35614D01*
Y35914D01*
X74441D01*
Y36152D01*
X46230D01*
Y34871D01*
G02X47089Y33228I-1141J-1643D01*
G01Y28110D01*
G02X46234Y26470I-2001J0D01*
G03Y25814I229J-328D01*
G02X47089Y24173I-1145J-1641D01*
G01Y19055D01*
G02X45089Y17054I-2001J0D01*
G01X39970D01*
G02X37970Y19055I0J2001D01*
G01Y24173D01*
G02X38825Y25814I2001J0D01*
G03Y26470I-229J328D01*
G02X38328Y26969I1145J1640D01*
G01X30376D01*
X24915Y32430D01*
X22328D01*
X22299Y32421D01*
G02X21703Y32330I-596J1910D01*
G01X16703D01*
G02X16204Y32394I0J2001D01*
G03X15704Y32006I-100J-387D01*
G01Y30431D01*
G02X14911Y28837I-2001J0D01*
G01Y25070D01*
X14927Y25033D01*
G02X15081Y24262I-1846J-771D01*
G01Y18553D01*
G02X13081Y16552I-2001J0D01*
G01X9341D01*
G02X7340Y18553I0J2001D01*
G01Y24262D01*
G02X7494Y25033I2001J0D01*
G01X7510Y25070D01*
Y25725D01*
X7502Y25733D01*
Y28831D01*
G02X6702Y30431I1201J1600D01*
G01Y34031D01*
G02X7661Y35739I2000J0D01*
G03Y36423I-208J342D01*
G02X6702Y38131I1041J1708D01*
G01Y41731D01*
G02X7502Y43331I2001J0D01*
G01Y48681D01*
X11585Y52763D01*
Y54114D01*
G02X18986I3701J0D01*
G01Y52448D01*
X22904Y48531D01*
Y39832D01*
X27981D01*
X33443Y34370D01*
X38328D01*
G02X38829Y34871I1643J-1142D01*
G01Y39707D01*
X42675Y43553D01*
X71761D01*
G03X72044Y44236I0J400D01*
G01X69795Y46484D01*
Y47709D01*
G03X69357Y48107I-400J0D01*
G02X69163Y48098I-194J1991D01*
G01X65423D01*
G02X63422Y50098I0J2001D01*
G01Y55807D01*
G02X63577Y56578I2001J0D01*
G01X63593Y56615D01*
Y57384D01*
X63573Y57404D01*
Y62596D01*
X57530D01*
G02X55721Y63740I0J2001D01*
G01X54666D01*
G02X54266Y63341I-1600J1201D01*
G01Y60781D01*
X54321Y60726D01*
Y56598D01*
G02X55121Y54998I-1201J-1600D01*
G01Y51398D01*
G02X53120Y49397I-2001J0D01*
G01X48120D01*
G02X47621Y49461I0J2001D01*
G03X47121Y49073I-100J-387D01*
G01Y47498D01*
G02X45120Y45497I-2001J0D01*
G01X40120D01*
G02X38119Y47498I0J2001D01*
G01Y51098D01*
G02X39079Y52806I2000J0D01*
G03Y53490I-208J342D01*
G02X38119Y55198I1041J1708D01*
G01Y58798D01*
G02X40120Y60799I2001J0D01*
G01X45120D01*
G02X46241Y60456I0J-2001D01*
G03X46865Y60787I224J331D01*
G01Y62940D01*
X39665D01*
G02X37665Y64941I0J2001D01*
G01Y67273D01*
G03X37048Y67609I-400J0D01*
G02X36348Y67403I-699J1082D01*
G01X30640D01*
G02X29352Y68691I0J1288D01*
G01Y72431D01*
G02X30640Y73719I1288J0D01*
G01X36348D01*
G02X37637Y72431I0J-1288D01*
G01Y71705D01*
G03X38308Y71411I400J0D01*
G02X39665Y71942I1357J-1470D01*
G01X46752D01*
Y98848D01*
X45031D01*
G02X43219Y97694I-1813J847D01*
G01X37308D01*
Y94787D01*
X43807D01*
G02X45808Y92786I0J-2001D01*
G01Y85186D01*
G02X45108Y83666I-2000J0D01*
G01Y78492D01*
X41341Y74724D01*
X37134D01*
X37098Y74710D01*
G02X36348Y74564I-749J1855D01*
G01X30640D01*
G02X28639Y76565I0J2001D01*
G01Y80305D01*
G02X30640Y82306I2001J0D01*
G01X36348D01*
G02X37141Y82143I1J-2001D01*
G01X37179Y82126D01*
X37707D01*
Y83185D01*
X31107D01*
G02X29107Y85186I0J2001D01*
G01Y92786D01*
G02X29652Y94159I2001J0D01*
G01X29707Y94217D01*
Y94593D01*
X29674Y94626D01*
Y96934D01*
G03X28991Y97217I-400J0D01*
G01X26792Y95018D01*
X24712D01*
X24695Y94836D01*
G02X22703Y93018I-1993J183D01*
G01X10703D01*
G02X8702Y95019I0J2001D01*
G01Y102619D01*
G02X10703Y104620I2001J0D01*
G01X22703D01*
G02X24265Y103869I0J-2001D01*
G03X24860Y103836I312J250D01*
G01X27374Y106350D01*
X29674D01*
Y108072D01*
X28503D01*
X28294Y107864D01*
X28156Y107967D01*
G03X26965Y108360I-1191J-1608D01*
G01X24765D01*
Y117922D01*
G02X21706Y119519I38J3801D01*
G01X21696Y119533D01*
X20833Y120396D01*
G03X20150Y120113I-283J-283D01*
G01Y116260D01*
G02X18996Y114447I-2001J0D01*
G01Y112798D01*
X18986Y112789D01*
Y111644D01*
G02X17257Y108512I-3701J0D01*
G01X17164Y108453D01*
Y108360D01*
X16993D01*
X16950Y108339D01*
G02X11585Y111644I-1665J3305D01*
G01Y114452D01*
G02X10440Y116260I856J1808D01*
G01Y127874D01*
G02X12441Y129875I2001J0D01*
G01X18150D01*
G02X18650Y129811I0J-2001D01*
G01X18675Y129805D01*
X22175D01*
X24371Y127608D01*
X24852Y128089D01*
X26012D01*
Y128510D01*
X26006Y128535D01*
G02X25942Y129035I1937J501D01*
G01Y134744D01*
G02X26006Y135245I2001J0D01*
G01X26012Y135270D01*
Y143728D01*
X30100Y147817D01*
X36053D01*
G02X36508Y147789I1J-3801D01*
G01X36520Y147788D01*
X48445D01*
G02X48944Y147724I0J-2001D01*
G03X49444Y148112I100J387D01*
G01Y149687D01*
G02X51445Y151688I2001J0D01*
G01X56445D01*
G02X57041Y151597I0J-2001D01*
G01X57070Y151588D01*
X72648D01*
X72685Y151551D01*
X72813D01*
G02X74299Y152213I1487J-1339D01*
G01X82961D01*
G02X84961Y150212I0J-2001D01*
G01Y145488D01*
G02X82961Y143487I-2001J0D01*
G01X74299D01*
G02X72813Y144149I0J2001D01*
G01X69619D01*
X69582Y144186D01*
X67431D01*
G03X67148Y143504I0J-400D01*
G01X70531Y140120D01*
Y116131D01*
X75731D01*
G03X76013Y116814I0J400D01*
G01X74929Y117898D01*
Y125535D01*
X74299D01*
G02X72298Y127535I0J2001D01*
G01Y132259D01*
G02X74299Y134260I2001J0D01*
G01X82961D01*
G02X84961Y132259I0J-2001D01*
G01Y127535D01*
G02X82961Y125535I-2001J0D01*
G01X82331D01*
Y121752D01*
X99628D01*
Y123114D01*
X101287Y124772D01*
G03X101004Y125455I-283J283D01*
G01X90835D01*
G02X88834Y127456I0J2001D01*
G01Y150291D01*
G02X90835Y152292I2001J0D01*
G01X116031D01*
G02X118032Y150291I0J-2001D01*
G01Y142674D01*
X120496D01*
G02X120807Y142662I2J-3801D01*
G03X121240Y143060I33J399D01*
G01Y147700D01*
X125008Y151468D01*
X129987D01*
X130024Y151483D01*
G02X130796Y151638I771J-1846D01*
G01X136504D01*
G02X137276Y151483I0J-2001D01*
G01X137313Y151468D01*
X138172D01*
X138190Y151486D01*
X140215D01*
X140252Y151502D01*
G02X141024Y151656I771J-1846D01*
G01X146732D01*
G02X148733Y149656I0J-2001D01*
G01Y145915D01*
G02X147750Y144193I-2000J0D01*
G03Y143504I204J-344D01*
G02X148733Y141781I-1017J-1722D01*
G01Y138041D01*
G02X147579Y136228I-2001J0D01*
G01Y135208D01*
X145226Y132856D01*
Y132452D01*
X145242Y132415D01*
G02X145396Y131644I-1846J-771D01*
G01Y125935D01*
G02X145242Y125164I-2001J0D01*
G01X145226Y125127D01*
Y123723D01*
X150197D01*
G02X152198Y121722I0J-2001D01*
G01Y116014D01*
G02X152134Y115513I-2001J0D01*
G01X152128Y115488D01*
Y112235D01*
X152124Y112231D01*
Y108437D01*
G02X152724Y107009I-1401J-1429D01*
G01Y99409D01*
G02X152124Y97980I-2001J0D01*
G01Y76648D01*
X152039Y76563D01*
Y73823D01*
X152045Y73798D01*
G02X152109Y73297I-1937J-501D01*
G01Y67589D01*
G02X152045Y67088I-2001J0D01*
G01X152039Y67063D01*
Y64492D01*
X150152Y62605D01*
G03X150301Y61945I283J-283D01*
G02X151633Y60060I-669J-1885D01*
G01Y52460D01*
G02X149632Y50459I-2001J0D01*
G01X137632D01*
G02X135631Y52460I0J2001D01*
G01Y60060D01*
G02X137632Y62061I2001J0D01*
G01X139831D01*
Y63034D01*
X141702Y64905D01*
G03X141419Y65588I-283J283D01*
G01X138494D01*
G02X136681Y66742I0J2001D01*
G01X130020D01*
Y59775D01*
X130035Y59738D01*
G02X130190Y58967I-1846J-771D01*
G01Y53258D01*
G02X128189Y51257I-2001J0D01*
G01X122165D01*
Y47875D01*
X122181Y47838D01*
G02X122335Y47067I-1846J-771D01*
G01Y41358D01*
G02X122181Y40587I-2001J0D01*
G01X122165Y40550D01*
Y39141D01*
X122185Y39122D01*
Y36192D01*
X122200Y36155D01*
G02X122355Y35384I-1846J-771D01*
G01Y29675D01*
G02X120354Y27674I-2001J0D01*
G01X116614D01*
G02X114613Y29675I0J2001D01*
G01Y35384D01*
G02X114750Y36111I2001J0D01*
G01X114764Y36146D01*
Y40550D01*
X114748Y40587D01*
G02X114594Y41358I1846J771D01*
G01Y47067D01*
G02X114748Y47838I2001J0D01*
G01X114764Y47875D01*
Y48408D01*
X114744Y48428D01*
Y52450D01*
X114729Y52487D01*
G02X114574Y53258I1846J771D01*
G01Y58967D01*
G02X116575Y60967I2001J0D01*
G01X122618D01*
Y70728D01*
X119319D01*
X119309Y70719D01*
X118289D01*
G02X116476Y69564I-1813J847D01*
G01X112736D01*
G02X110735Y71565I0J2001D01*
G01Y77274D01*
G02X112736Y79274I2001J0D01*
G01X116476D01*
G02X118285Y78130I0J-2001D01*
G01X122648D01*
G02X126347Y74533I0J-3701D01*
G03X126747Y74144I400J11D01*
G01X136681D01*
G02X138494Y75298I1813J-847D01*
G01X144437D01*
Y79711D01*
X144522Y79796D01*
Y80395D01*
G03X143908Y80733I-400J0D01*
G02X143219Y80533I-690J1088D01*
G01X137510D01*
G02X136222Y81821I0J1288D01*
G01Y85561D01*
G02X137510Y86849I1288J0D01*
G01X143219D01*
G02X143908Y86649I0J-1288D01*
G03X144522Y86987I214J338D01*
G01Y87471D01*
G03X143972Y87841I-400J0D01*
G02X143219Y87694I-753J1854D01*
G01X137510D01*
G02X135509Y89695I0J2001D01*
G01Y93435D01*
G02X136663Y95248I2001J0D01*
G01Y96268D01*
X136722Y96327D01*
Y97889D01*
G02X136022Y99409I1300J1520D01*
G01Y107009D01*
G02X136023Y107066I2001J1D01*
G01Y107272D01*
X134317D01*
G03X134043Y106580I0J-400D01*
G02X134678Y105118I-1366J-1462D01*
G01Y101378D01*
G02X133524Y99565I-2001J0D01*
G01Y94510D01*
G02X134658Y92707I-866J-1804D01*
G01Y88967D01*
G02X132657Y86966I-2001J0D01*
G01X131761D01*
G03X131570Y86214I0J-400D01*
G02X131686Y86149I-1761J-3255D01*
G01X131733Y86121D01*
X132657D01*
G02X133946Y84833I0J-1288D01*
G01Y81093D01*
G02X132657Y79804I-1288J0D01*
G01X131733D01*
X131686Y79776D01*
G02X129803Y79262I-1883J3186D01*
G01X123241D01*
X118569Y83933D01*
G02X117303Y83481I-1266J1549D01*
G01X112185D01*
G02X110184Y85482I0J2001D01*
G01Y90600D01*
G02X111040Y92241I2001J0D01*
G03Y92897I-229J328D01*
G02X110184Y94537I1145J1641D01*
G01Y99656D01*
G02X110590Y100863I2000J0D01*
G03X110271Y101504I-319J241D01*
G01X103554D01*
X99528Y105531D01*
Y107031D01*
G02X98828Y108551I1300J1520D01*
G01Y112151D01*
G02X99504Y113651I2001J0D01*
G03X99239Y114350I-265J300D01*
G01X97320D01*
G03X96956Y113786I0J-400D01*
G02X93583Y108563I-3373J-1522D01*
G01X85769D01*
X85197Y107991D01*
Y102953D01*
G03X85730Y102576I400J0D01*
G02X90659Y99085I1229J-3491D01*
G01Y98507D01*
X95059D01*
G02X97060Y96506I0J-2001D01*
G01Y88632D01*
G02X95059Y86631I-2001J0D01*
G01X90364D01*
Y53396D01*
X102837D01*
X106684Y49548D01*
Y37357D01*
X106693Y37329D01*
G02X106784Y36732I-1910J-596D01*
G01Y31732D01*
G02X106720Y31233I-2001J0D01*
G03X107108Y30733I387J-100D01*
G01X108683D01*
G02X110684Y28732I0J-2001D01*
G01Y23732D01*
G02X108683Y21731I-2001J0D01*
G01X105083D01*
G02X103082Y23732I0J2001D01*
G01Y24094D01*
G03X102341Y24303I-400J0D01*
G02X102303Y24241I-3162J1923D01*
G01X102271Y24192D01*
Y23732D01*
G02X100983Y22444I-1288J0D01*
G01X97383D01*
G02X96948Y22520I0J1288D01*
G01X96915Y22531D01*
X95726D01*
X95635Y22441D01*
X90560D01*
G03X90162Y22004I0J-400D01*
G02X90170Y21821I-1993J-182D01*
G01Y16112D01*
G02X88169Y14111I-2001J0D01*
G37*
G54D27*
X20000Y137500D03*
X137500Y20000D03*
%LPD*%
G75*
G54D10*
X11211Y21407D03*
X19085D03*
X33474Y102549D03*
X29813Y131890D03*
X37687D03*
X29803Y121722D03*
X37677D03*
X67293Y52953D03*
X59419D03*
X59400Y67451D03*
X67274D03*
X41348Y102549D03*
X78425Y18967D03*
X86299D03*
X118465Y44213D03*
X126339D03*
X118484Y32530D03*
X126358D03*
X126319Y56112D03*
X118445D03*
X114606Y74419D03*
X106732D03*
X148238Y70443D03*
X140364D03*
X148327Y118868D03*
X140453D03*
X141526Y128789D03*
X133652D03*
G54D20*
X42165Y67441D03*
X50565D03*
G54D11*
X11203Y39931D03*
Y32231D03*
X19203Y36131D03*
X42620Y49298D03*
X50620Y53198D03*
X42620Y56998D03*
X58831Y116230D03*
Y108530D03*
X66831Y112430D03*
X53945Y140187D03*
X45945Y143987D03*
X53945Y147887D03*
X78516Y39852D03*
Y32152D03*
X86516Y36052D03*
X73496Y84938D03*
Y92638D03*
X81496Y88838D03*
X103329Y110351D03*
X111329Y114251D03*
X103329Y118051D03*
G54D21*
X61638Y76821D03*
G54D12*
X15285Y54114D03*
Y111644D03*
X36053Y139882D03*
X62913Y103219D03*
Y121634D03*
X74104Y26142D03*
X84281D03*
X93583Y112264D03*
X86959Y99085D03*
X73504D03*
X122648Y74429D03*
X120108Y114222D03*
X122648Y97096D03*
X120496Y138874D03*
G54D13*
X16703Y75219D03*
Y98819D03*
X143632Y56260D03*
Y32660D03*
G54D22*
X103433Y138874D03*
G54D14*
X33494Y78435D03*
Y70561D03*
X15295Y126004D03*
Y118130D03*
X140364Y83691D03*
X129803Y82963D03*
X140364Y91565D03*
X129803Y90837D03*
X129823Y111122D03*
Y103248D03*
X143878Y139911D03*
X133650Y139893D03*
X143878Y147785D03*
X133650Y147767D03*
G54D23*
X78630Y129897D03*
Y147850D03*
G54D24*
G01X11211Y21407D02*
Y27258D01*
X11203Y27266D01*
Y32231D01*
G01Y39931D02*
Y47148D01*
X15128Y51073D01*
G01D02*
X19203Y46998D01*
Y36131D01*
G01X15128Y51073D02*
X15285Y51230D01*
Y54114D01*
G01X42530Y30669D02*
X31909D01*
X26448Y36131D01*
X19203D01*
G01X33494Y78435D02*
X33504Y78425D01*
X39807D01*
X41407Y80025D01*
Y88986D01*
G01X15295Y118130D02*
Y114331D01*
X15285Y114322D01*
Y111644D01*
G01X78516Y39852D02*
X44208D01*
X42530Y38174D01*
Y30669D01*
G01X50620Y53198D02*
Y59193D01*
X50565Y59248D01*
Y67441D01*
G01X64774Y26142D02*
X74104D01*
G01X41348Y102549D02*
X48853D01*
X50453Y100949D01*
Y67554D01*
X50565Y67441D01*
G01X59400Y67451D02*
X56230D01*
X56220Y67441D01*
X50565D01*
G01X61638Y76821D02*
X65615D01*
X67215Y75221D01*
Y67510D01*
X67274Y67451D01*
G01X61638Y76821D02*
X57555D01*
X55955Y78421D01*
Y84963D01*
G01X62913Y103219D02*
X60610D01*
X59755Y102363D01*
Y92963D01*
G01X37677Y121722D02*
Y112535D01*
X41682Y108530D01*
X58831D01*
G01X73496Y84938D02*
X67940D01*
X67915Y84963D01*
X63655D01*
G01X53945Y140187D02*
X65231D01*
X66831Y138587D01*
Y112430D01*
G01X37687Y131890D02*
X40857D01*
X41022Y132055D01*
X45125D01*
G01X58831Y116230D02*
X49861D01*
X49025Y117066D01*
Y124055D01*
G01X58831Y116230D02*
Y120034D01*
X60431Y121634D01*
X62913D01*
G01X49025Y124055D02*
X52125D01*
X52135Y124065D01*
X58610D01*
X60210Y125665D01*
Y130455D01*
X58610Y132055D01*
X52825D01*
G01X78630Y147850D02*
X71152D01*
X71115Y147887D01*
X53945D01*
G01X78425Y18967D02*
Y25252D01*
X78516Y25343D01*
Y32152D01*
G01X102983Y34232D02*
Y48015D01*
X101304Y49695D01*
X88263D01*
X86663Y51295D01*
Y87238D01*
X85063Y88838D01*
X81496D01*
G01X84281Y26142D02*
X94102D01*
X94193Y26232D01*
X99183D01*
G01X86516Y36052D02*
X86506Y36062D01*
Y44817D01*
X84906Y46417D01*
X75096D01*
X73496Y48017D01*
Y84938D01*
G01X67274Y67451D02*
Y58937D01*
X67293Y58917D01*
Y52953D01*
G01X93583Y112264D02*
X84236D01*
X81496Y109524D01*
G01D02*
X78590Y112430D01*
X66831D01*
G01X81496Y109524D02*
Y88838D01*
G01X92500Y92569D02*
X88559D01*
X86959Y94169D01*
Y99085D01*
G01X73504D02*
Y95746D01*
X73496Y95738D01*
Y92638D01*
G01X103329Y118051D02*
X80010D01*
X78630Y119431D01*
Y129897D01*
G01X118445Y56112D02*
Y49961D01*
X118465Y49941D01*
Y44213D01*
G01X118484Y32530D02*
Y37589D01*
X118465Y37608D01*
Y44213D01*
G01X140364Y70443D02*
X126939D01*
X126339Y69843D01*
Y69202D01*
X126319Y69183D01*
Y56112D01*
G01X114606Y74419D02*
X117776D01*
X117786Y74429D01*
X122648D01*
G01X129803Y82963D02*
X124774D01*
X119695Y88041D01*
X114744D01*
G01X120108Y114222D02*
X115678D01*
X115650Y114251D01*
X111329D01*
G01X114744Y97096D02*
X122648D01*
G01X103329Y118051D02*
Y121581D01*
X104929Y123181D01*
X122347D01*
X124941Y125775D01*
Y146167D01*
X126541Y147767D01*
X133650D01*
G01X129823Y103248D02*
Y96083D01*
X129803Y96063D01*
Y90837D01*
G01X140364Y91565D02*
Y94735D01*
X140423Y94794D01*
Y103209D01*
G01X141526Y128789D02*
Y134389D01*
X143878Y136741D01*
Y139911D01*
G01X140453Y118868D02*
Y123562D01*
X141526Y124635D01*
Y128789D01*
G01X133650Y139893D02*
Y132946D01*
X133652Y132944D01*
Y128789D01*
G01X133650Y147767D02*
X139705D01*
X139723Y147785D01*
X143878D01*
G54D15*
X33507Y88986D03*
X41407D03*
X140423Y103209D03*
X148323D03*
G54D25*
G01X19085Y17065D02*
Y21407D01*
G01D02*
Y25750D01*
G01Y21407D02*
X22443D01*
G01X16703Y69218D02*
Y75219D01*
G01D02*
Y81220D01*
G01X8502Y75219D02*
X16703D01*
G01D02*
X24904D01*
G01X33494Y67203D02*
Y70561D01*
G01X29152D02*
X33494D01*
G01X42530Y16854D02*
Y21614D01*
G01X37770D02*
X42530D01*
G01D02*
X47289D01*
G01X59419Y48610D02*
Y52953D01*
G01D02*
Y57295D01*
G01X56061Y52953D02*
X59419D01*
G01X42620Y56998D02*
Y60999D01*
G01X37919Y56998D02*
X42620D01*
G01X42165Y62740D02*
Y67441D01*
G01D02*
Y72142D01*
G01X37465Y67441D02*
X42165D01*
G01X86299Y13911D02*
Y18967D01*
G01D02*
X90370D01*
G01X106883Y21531D02*
Y26232D01*
G01X126358Y28187D02*
Y32530D01*
G01D02*
Y36872D01*
G01Y32530D02*
X129717D01*
G01X126339Y39870D02*
Y44213D01*
G01D02*
Y48555D01*
G01Y44213D02*
X129697D01*
G01X106883Y26232D02*
X110884D01*
G01X106732Y70077D02*
Y74419D01*
G01D02*
Y78762D01*
G01X103374Y74419D02*
X106732D01*
G01X143632Y26659D02*
Y32660D01*
G01D02*
Y38661D01*
G01X135431Y32660D02*
X143632D01*
G01D02*
X151833D01*
G01X140364Y80333D02*
Y83691D01*
G01X136022D02*
X140364D01*
G54D16*
X20000Y137500D03*
X137500Y20000D03*
G54D26*
G01X16703Y98819D02*
X25218D01*
X28948Y102549D01*
X33474D01*
G01D02*
Y96201D01*
X33507Y96168D01*
Y88986D01*
G01X33474Y102549D02*
Y111111D01*
X29803Y114782D01*
Y121722D01*
G01X15295Y126004D02*
X20600D01*
X24803Y121801D01*
Y121722D01*
X29803D01*
G01X45945Y143987D02*
X36082D01*
X36053Y144016D01*
G01D02*
Y139882D01*
G01X29813Y131890D02*
Y142154D01*
X31675Y144016D01*
X36053D01*
G01X29813Y131890D02*
Y125987D01*
X29803Y125977D01*
Y121722D01*
G01X129823Y111122D02*
X125568D01*
X119751Y105305D01*
X105129D01*
X103329Y107105D01*
Y110351D01*
G01X103433Y138874D02*
X120496D01*
G01X148323Y103209D02*
Y78222D01*
X148238Y78137D01*
Y70443D01*
G01D02*
Y66066D01*
X143632Y61460D01*
Y56260D01*
G01X148323Y103209D02*
Y111073D01*
G01D02*
X134127D01*
X134078Y111122D01*
X129823D01*
G01X148327Y118868D02*
Y113809D01*
X148323Y113806D01*
Y111073D01*
G54D17*
X64774Y26142D03*
X92500Y92569D03*
G54D18*
X42530Y21614D03*
Y30669D03*
X114744Y88041D03*
Y97096D03*
G54D19*
X55955Y84963D03*
X63655D03*
X59755Y92963D03*
X52825Y132055D03*
X45125D03*
X49025Y124055D03*
X99183Y26232D03*
X106883D03*
X102983Y34232D03*
M02*
